<svg xmlns="http://www.w3.org/2000/svg" width="256" height="256" viewBox="0 0 100 100"><rect width="100" height="100" rx="50" fill="#f09aaf"></rect><path fill="#fff" d="M31.12 57.92L31.12 57.92Q30.60 58.36 29.78 58.62Q28.96 58.88 27.88 58.88L27.88 58.88Q26.44 58.88 25.50 58.52Q24.56 58.16 24.28 57.28L24.28 57.28Q23.16 53.76 22.44 51.58Q21.72 49.40 21.32 47.76L21.32 47.76L21.12 47.76Q21.00 50.12 20.94 52.06Q20.88 54.00 20.86 55.84Q20.84 57.68 20.78 59.56Q20.72 61.44 20.60 63.72L20.60 63.72Q20.08 63.92 19.24 64.06Q18.40 64.20 17.56 64.20L17.56 64.20Q15.80 64.20 14.82 63.64Q13.84 63.08 13.84 61.60L13.84 61.60Q13.84 60.36 13.96 57.98Q14.08 55.60 14.26 52.72Q14.44 49.84 14.64 46.80Q14.84 43.76 15.00 41.20L15.00 41.20Q15.32 40.68 16.40 40.08Q17.48 39.48 19.44 39.48L19.44 39.48Q21.56 39.48 22.76 40.14Q23.96 40.80 24.52 42.28L24.52 42.28Q24.88 43.24 25.30 44.48Q25.72 45.72 26.14 47.04Q26.56 48.36 26.96 49.66Q27.36 50.96 27.68 52.00L27.68 52.00L27.88 52.00Q28.84 48.64 29.80 45.50Q30.76 42.36 31.56 40.24L31.56 40.24Q32.16 39.92 33.10 39.70Q34.04 39.48 35.20 39.48L35.20 39.48Q37.16 39.48 38.40 40.06Q39.64 40.64 39.84 41.72L39.84 41.72Q40 42.52 40.18 44.18Q40.36 45.84 40.56 47.92Q40.76 50.00 40.96 52.32Q41.16 54.64 41.34 56.78Q41.52 58.92 41.64 60.70Q41.76 62.48 41.80 63.44L41.80 63.44Q41.12 63.84 40.38 64.02Q39.64 64.20 38.48 64.20L38.48 64.20Q36.96 64.20 35.92 63.68Q34.88 63.16 34.80 61.64L34.80 61.64Q34.56 57.28 34.50 53.80Q34.44 50.32 34.32 47.96L34.32 47.96L34.12 47.96Q33.72 49.52 32.96 51.88Q32.20 54.24 31.12 57.92ZM61.52 55.32L51.56 56.84Q52.12 58.28 53.44 58.86Q54.76 59.44 56.40 59.44L56.40 59.44Q58.08 59.44 59.60 59.02Q61.12 58.60 62.04 58.04L62.04 58.04Q62.68 58.44 63.12 59.16Q63.56 59.88 63.56 60.68L63.56 60.68Q63.56 61.68 63.00 62.40Q62.44 63.12 61.42 63.60Q60.40 64.08 59.00 64.30Q57.60 64.52 55.92 64.52L55.92 64.52Q53.56 64.52 51.54 63.86Q49.52 63.20 48.04 61.88Q46.56 60.56 45.72 58.56Q44.88 56.56 44.88 53.88L44.88 53.88Q44.88 51.24 45.74 49.34Q46.60 47.44 48.02 46.22Q49.44 45 51.24 44.42Q53.04 43.84 54.92 43.84L54.92 43.84Q57.04 43.84 58.78 44.48Q60.52 45.12 61.78 46.24Q63.04 47.36 63.72 48.92Q64.40 50.48 64.40 52.32L64.40 52.32Q64.40 53.68 63.64 54.40Q62.88 55.12 61.52 55.32L61.52 55.32ZM54.96 48.80L54.96 48.80Q53.44 48.80 52.42 49.72Q51.40 50.64 51.20 52.32L51.20 52.32L58.00 51.20Q57.96 50.80 57.76 50.38Q57.56 49.96 57.20 49.60Q56.84 49.24 56.28 49.02Q55.72 48.80 54.96 48.80ZM67.84 61.00L67.84 44.72Q68.28 44.60 69.10 44.48Q69.92 44.36 70.88 44.36L70.88 44.36Q72.88 44.36 73.76 45.02Q74.64 45.68 74.64 47.56L74.64 47.56L74.64 63.84Q74.20 63.96 73.38 64.08Q72.56 64.20 71.60 64.20L71.60 64.20Q69.60 64.20 68.72 63.54Q67.84 62.88 67.84 61.00L67.84 61.00ZM67.52 39.04L67.52 39.04Q67.52 37.52 68.54 36.48Q69.56 35.44 71.24 35.44L71.24 35.44Q72.92 35.44 73.94 36.48Q74.96 37.52 74.96 39.04L74.96 39.04Q74.96 40.56 73.94 41.60Q72.92 42.64 71.24 42.64L71.24 42.64Q69.56 42.64 68.54 41.60Q67.52 40.56 67.52 39.04ZM78.40 48.08L78.40 48.08Q78.40 46.40 79.44 45.28Q80.48 44.16 82.28 44.16L82.28 44.16Q84.08 44.16 85.12 45.28Q86.16 46.40 86.16 48.08L86.16 48.08Q86.16 49.76 85.12 50.88Q84.08 52.00 82.28 52.00L82.28 52.00Q80.48 52.00 79.44 50.88Q78.40 49.76 78.40 48.08ZM78.16 60.64L78.16 60.64Q78.16 58.96 79.20 57.84Q80.24 56.72 82.04 56.72L82.04 56.72Q83.84 56.72 84.88 57.84Q85.92 58.96 85.92 60.64L85.92 60.64Q85.92 62.32 84.88 63.44Q83.84 64.56 82.04 64.56L82.04 64.56Q80.24 64.56 79.20 63.44Q78.16 62.32 78.16 60.64Z"></path></svg>